<?xml version="1.0" standalone="no"?>
<!DOCTYPE svg PUBLIC "-//W3C//DTD SVG 20010904//EN"
 "http://www.w3.org/TR/2001/REC-SVG-20010904/DTD/svg10.dtd">
<svg version="1.0" xmlns="http://www.w3.org/2000/svg"
 width="1024.000000pt" height="1024.000000pt" viewBox="0 0 1024.000000 1024.000000"
 preserveAspectRatio="xMidYMid meet">
<metadata>
Created by potrace 1.16, written by Peter Selinger 2001-2019
</metadata>
<g transform="translate(0.000000,1024.000000) scale(0.100000,-0.100000)"
fill="#000000" stroke="none">
<path d="M4248 8800 c-18 -11 -116 -156 -161 -240 -17 -30 -58 -109 -92 -175
-34 -66 -76 -144 -93 -173 -18 -29 -32 -57 -32 -63 0 -5 -4 -17 -9 -27 -22
-42 -139 -332 -176 -437 -9 -27 -26 -75 -37 -105 -20 -54 -31 -91 -48 -160
-12 -53 -69 -267 -89 -340 -10 -36 -24 -92 -30 -125 -7 -33 -16 -76 -21 -95
-5 -19 -12 -51 -15 -70 -3 -19 -10 -64 -15 -100 -42 -259 -73 -666 -71 -945 1
-145 19 -482 30 -570 29 -218 36 -262 61 -375 5 -25 17 -83 25 -130 14 -74 31
-144 76 -305 7 -22 15 -53 20 -70 30 -117 135 -439 174 -540 42 -109 68 -168
146 -331 22 -44 39 -85 39 -90 0 -6 16 -37 36 -70 20 -32 62 -109 94 -171 32
-61 67 -124 77 -140 11 -15 34 -55 52 -88 17 -33 46 -77 64 -97 18 -21 48 -64
67 -95 19 -32 61 -94 95 -138 62 -81 72 -94 135 -170 19 -23 67 -82 105 -130
85 -109 196 -222 290 -296 39 -31 76 -68 84 -83 24 -44 313 -276 370 -296 20
-7 65 -34 100 -61 80 -62 108 -64 150 -11 16 20 84 107 151 192 66 85 135 172
152 193 17 21 44 64 60 95 16 31 37 67 47 81 31 47 209 414 257 531 51 126 57
142 84 245 11 39 29 104 40 145 28 98 36 133 91 435 39 218 64 511 62 760 -1
412 -28 723 -93 1085 -11 58 -27 148 -36 200 -9 52 -24 129 -34 170 -10 41
-23 100 -30 130 -6 30 -16 69 -20 85 -5 17 -14 50 -20 75 -7 25 -16 54 -20 65
-4 11 -26 79 -49 150 -39 118 -100 292 -153 435 -21 57 -117 258 -218 462
-127 253 -339 581 -499 773 -37 44 -82 100 -101 125 -27 35 -176 203 -235 265
-5 6 -38 30 -72 54 -35 24 -75 59 -89 78 -41 54 -521 433 -548 433 -7 0 -32
14 -54 30 -46 33 -49 34 -74 20z"/>
</g>
</svg>
